<svg xmlns="http://www.w3.org/2000/svg" viewBox="0 0 64 64">
  <defs>
    <linearGradient id="iconGradient" x1="0%" y1="0%" x2="100%" y2="100%">
      <stop offset="0%" style="stop-color:#0d8ae8;stop-opacity:1" />
      <stop offset="100%" style="stop-color:#f0733f;stop-opacity:1" />
    </linearGradient>
  </defs>
  <g transform="translate(8, 12)">
    <rect x="0" y="0" width="48" height="32" rx="4" ry="4" fill="url(#iconGradient)" />
    <rect x="2" y="2" width="44" height="26" rx="3" fill="white" opacity="0.2" />
    <rect x="6" y="6" width="36" height="4" rx="2" fill="white" opacity="0.4" />
    <line x1="8" y1="14" x2="32" y2="14" stroke="white" strokeWidth="2" opacity="0.5" strokeLinecap="round" />
    <path d="M36 16c0-1.5 1-3 2.5-3 0.8 0 1.5 0.5 2 1.2 0.5-0.7 1.2-1.2 2-1.2 1.5 0 2.5 1.5 2.5 3 0 2-1.5 3-4 4.5-2.5-1.5-4-2.5-4-4.5z" fill="white" opacity="0.6" />
  </g>
</svg>
